<svg xmlns="http://www.w3.org/2000/svg" viewBox="0 0 320 64" role="img">
  <g transform="translate(0 0)">
    <path d="M14 8h36a4 4 0 0 1 4 4v22.3c0 10.6-6.4 20.5-16.8 24.5L32 62 12.8 58.8C4.4 55.7 0 47.8 0 39.2V12a4 4 0 0 1 4-4Z" fill="#0F172A" />
    <rect x="14" y="14" width="6" height="20" rx="2" fill="#D4AF37" />
    <rect x="26" y="14" width="6" height="20" rx="2" fill="#D4AF37" />
    <rect x="38" y="14" width="6" height="20" rx="2" fill="#D4AF37" />
    <path d="M22 34l8 8 16-18" fill="none" stroke="#D4AF37" stroke-width="5" stroke-linecap="round" stroke-linejoin="round" />
  </g>
  <text x="84" y="42" fill="#0F172A" font-family="Inter, system-ui, sans-serif" font-size="24" font-weight="700">Task Manager</text>
</svg>
